<svg width="2589" height="797" viewBox="0 0 2589 797" fill="none" xmlns="http://www.w3.org/2000/svg">
<g clip-path="url(#clip0_38_2)">
<path fill-rule="evenodd" clip-rule="evenodd" d="M205.099 778.6C169.146 778.6 140 749.454 140 713.502V79.6985C140 43.7456 169.146 14.6 205.099 14.6H502.746V106.606C502.746 142.559 531.891 171.704 567.844 171.704H659.735V713.501C659.735 749.454 630.59 778.6 594.637 778.6H205.099Z" fill="#666666"/>
<path d="M659.735 171.704L502.746 14.6V106.606C502.746 142.559 531.891 171.704 567.844 171.704H659.735Z" fill="#444444"/>
<path d="M399.464 582.445C434.389 582.445 467.884 568.571 492.579 543.875C517.275 519.18 531.149 485.685 531.149 450.76C531.149 415.835 517.275 382.34 492.579 357.645C467.884 332.949 434.389 319.075 399.464 319.075C364.539 319.075 331.044 332.949 306.349 357.645C281.653 382.34 267.779 415.835 267.779 450.76C267.779 485.685 281.653 519.18 306.349 543.875C331.044 568.571 364.539 582.445 399.464 582.445Z" stroke="#CCCCCC" stroke-width="32.9212" stroke-linecap="round" stroke-linejoin="round"/>
<path d="M399.464 483.681C408.195 483.681 416.569 480.213 422.743 474.039C428.916 467.865 432.385 459.491 432.385 450.76C432.385 442.029 428.916 433.655 422.743 427.481C416.569 421.307 408.195 417.839 399.464 417.839C390.732 417.839 382.359 421.307 376.185 427.481C370.011 433.655 366.542 442.029 366.542 450.76C366.542 459.491 370.011 467.865 376.185 474.039C382.359 480.213 390.732 483.681 399.464 483.681Z" stroke="#CCCCCC" stroke-width="32.9212" stroke-linecap="round" stroke-linejoin="round"/>
<path d="M399.464 286.154V319.075" stroke="#CCCCCC" stroke-width="32.9212" stroke-linecap="round" stroke-linejoin="round"/>
<path d="M399.464 615.366V582.445" stroke="#CCCCCC" stroke-width="32.9212" stroke-linecap="round" stroke-linejoin="round"/>
<path d="M481.767 593.309L465.307 564.832" stroke="#CCCCCC" stroke-width="32.9212" stroke-linecap="round" stroke-linejoin="round"/>
<path d="M383.003 422.284L317.161 308.211" stroke="#CCCCCC" stroke-width="32.9212" stroke-linecap="round" stroke-linejoin="round"/>
<path d="M542.014 533.063L513.537 516.603" stroke="#CCCCCC" stroke-width="32.9212" stroke-linecap="round" stroke-linejoin="round"/>
<path d="M256.914 368.457L285.391 384.917" stroke="#CCCCCC" stroke-width="32.9212" stroke-linecap="round" stroke-linejoin="round"/>
<path d="M432.385 450.76H564.07" stroke="#CCCCCC" stroke-width="32.9212" stroke-linecap="round" stroke-linejoin="round"/>
<path d="M234.858 450.76H267.779" stroke="#CCCCCC" stroke-width="32.9212" stroke-linecap="round" stroke-linejoin="round"/>
<path d="M542.014 368.457L513.537 384.917" stroke="#CCCCCC" stroke-width="32.9212" stroke-linecap="round" stroke-linejoin="round"/>
<path d="M256.914 533.063L285.391 516.603" stroke="#CCCCCC" stroke-width="32.9212" stroke-linecap="round" stroke-linejoin="round"/>
<path d="M481.767 308.211L465.307 336.688" stroke="#CCCCCC" stroke-width="32.9212" stroke-linecap="round" stroke-linejoin="round"/>
<path d="M383.003 479.237L317.161 593.309" stroke="#CCCCCC" stroke-width="32.9212" stroke-linecap="round" stroke-linejoin="round"/>
<path d="M812.364 245.818V225.818H952V245.818H893.455V412H870.909V245.818H812.364ZM1022.18 414.909C1008.73 414.909 997.121 411.939 987.364 406C977.667 400 970.182 391.636 964.909 380.909C959.697 370.121 957.091 357.576 957.091 343.273C957.091 328.97 959.697 316.364 964.909 305.455C970.182 294.485 977.515 285.939 986.909 279.818C996.364 273.636 1007.39 270.545 1020 270.545C1027.27 270.545 1034.45 271.758 1041.55 274.182C1048.64 276.606 1055.09 280.545 1060.91 286C1066.73 291.394 1071.36 298.545 1074.82 307.455C1078.27 316.364 1080 327.333 1080 340.364V349.455H972.364V330.909H1058.18C1058.18 323.03 1056.61 316 1053.45 309.818C1050.36 303.636 1045.94 298.758 1040.18 295.182C1034.48 291.606 1027.76 289.818 1020 289.818C1011.45 289.818 1004.06 291.939 997.818 296.182C991.636 300.364 986.879 305.818 983.545 312.545C980.212 319.273 978.545 326.485 978.545 334.182V346.545C978.545 357.091 980.364 366.03 984 373.364C987.697 380.636 992.818 386.182 999.364 390C1005.91 393.758 1013.52 395.636 1022.18 395.636C1027.82 395.636 1032.91 394.848 1037.45 393.273C1042.06 391.636 1046.03 389.212 1049.36 386C1052.7 382.727 1055.27 378.667 1057.09 373.818L1077.82 379.636C1075.64 386.667 1071.97 392.848 1066.82 398.182C1061.67 403.455 1055.3 407.576 1047.73 410.545C1040.15 413.455 1031.64 414.909 1022.18 414.909ZM1112.64 412V272.364H1133.36V294.182H1135.18C1138.09 286.727 1142.79 280.939 1149.27 276.818C1155.76 272.636 1163.55 270.545 1172.64 270.545C1181.85 270.545 1189.52 272.636 1195.64 276.818C1201.82 280.939 1206.64 286.727 1210.09 294.182H1211.55C1215.12 286.97 1220.48 281.242 1227.64 277C1234.79 272.697 1243.36 270.545 1253.36 270.545C1265.85 270.545 1276.06 274.455 1284 282.273C1291.94 290.03 1295.91 302.121 1295.91 318.545V412H1274.45V318.545C1274.45 308.242 1271.64 300.879 1266 296.455C1260.36 292.03 1253.73 289.818 1246.09 289.818C1236.27 289.818 1228.67 292.788 1223.27 298.727C1217.88 304.606 1215.18 312.061 1215.18 321.091V412H1193.36V316.364C1193.36 308.424 1190.79 302.03 1185.64 297.182C1180.48 292.273 1173.85 289.818 1165.73 289.818C1160.15 289.818 1154.94 291.303 1150.09 294.273C1145.3 297.242 1141.42 301.364 1138.45 306.636C1135.55 311.848 1134.09 317.879 1134.09 324.727V412H1112.64ZM1335.14 464.364V272.364H1355.86V294.545H1358.41C1359.98 292.121 1362.17 289.03 1364.95 285.273C1367.8 281.455 1371.86 278.061 1377.14 275.091C1382.47 272.061 1389.68 270.545 1398.77 270.545C1410.53 270.545 1420.89 273.485 1429.86 279.364C1438.83 285.242 1445.83 293.576 1450.86 304.364C1455.89 315.152 1458.41 327.879 1458.41 342.545C1458.41 357.333 1455.89 370.152 1450.86 381C1445.83 391.788 1438.86 400.152 1429.95 406.091C1421.05 411.97 1410.77 414.909 1399.14 414.909C1390.17 414.909 1382.98 413.424 1377.59 410.455C1372.2 407.424 1368.05 404 1365.14 400.182C1362.23 396.303 1359.98 393.091 1358.41 390.545H1356.59V464.364H1335.14ZM1356.23 342.182C1356.23 352.727 1357.77 362.03 1360.86 370.091C1363.95 378.091 1368.47 384.364 1374.41 388.909C1380.35 393.394 1387.62 395.636 1396.23 395.636C1405.2 395.636 1412.68 393.273 1418.68 388.545C1424.74 383.758 1429.29 377.333 1432.32 369.273C1435.41 361.152 1436.95 352.121 1436.95 342.182C1436.95 332.364 1435.44 323.515 1432.41 315.636C1429.44 307.697 1424.92 301.424 1418.86 296.818C1412.86 292.152 1405.32 289.818 1396.23 289.818C1387.5 289.818 1380.17 292.03 1374.23 296.455C1368.29 300.818 1363.8 306.939 1360.77 314.818C1357.74 322.636 1356.23 331.758 1356.23 342.182ZM1512.59 225.818V412H1491.14V225.818H1512.59ZM1592.98 415.273C1584.13 415.273 1576.1 413.606 1568.89 410.273C1561.67 406.879 1555.95 402 1551.7 395.636C1547.46 389.212 1545.34 381.455 1545.34 372.364C1545.34 364.364 1546.92 357.879 1550.07 352.909C1553.22 347.879 1557.43 343.939 1562.7 341.091C1567.98 338.242 1573.8 336.121 1580.16 334.727C1586.58 333.273 1593.04 332.121 1599.52 331.273C1608.01 330.182 1614.89 329.364 1620.16 328.818C1625.49 328.212 1629.37 327.212 1631.8 325.818C1634.28 324.424 1635.52 322 1635.52 318.545V317.818C1635.52 308.848 1633.07 301.879 1628.16 296.909C1623.31 291.939 1615.95 289.455 1606.07 289.455C1595.83 289.455 1587.8 291.697 1581.98 296.182C1576.16 300.667 1572.07 305.455 1569.7 310.545L1549.34 303.273C1552.98 294.788 1557.83 288.182 1563.89 283.455C1570.01 278.667 1576.67 275.333 1583.89 273.455C1591.16 271.515 1598.31 270.545 1605.34 270.545C1609.83 270.545 1614.98 271.091 1620.8 272.182C1626.67 273.212 1632.34 275.364 1637.8 278.636C1643.31 281.909 1647.89 286.848 1651.52 293.455C1655.16 300.061 1656.98 308.909 1656.98 320V412H1635.52V393.091H1634.43C1632.98 396.121 1630.55 399.364 1627.16 402.818C1623.77 406.273 1619.25 409.212 1613.61 411.636C1607.98 414.061 1601.1 415.273 1592.98 415.273ZM1596.25 396C1604.73 396 1611.89 394.333 1617.7 391C1623.58 387.667 1628.01 383.364 1630.98 378.091C1634.01 372.818 1635.52 367.273 1635.52 361.455V341.818C1634.61 342.909 1632.61 343.909 1629.52 344.818C1626.49 345.667 1622.98 346.424 1618.98 347.091C1615.04 347.697 1611.19 348.242 1607.43 348.727C1603.73 349.152 1600.73 349.515 1598.43 349.818C1592.86 350.545 1587.64 351.727 1582.8 353.364C1578.01 354.939 1574.13 357.333 1571.16 360.545C1568.25 363.697 1566.8 368 1566.8 373.455C1566.8 380.909 1569.55 386.545 1575.07 390.364C1580.64 394.121 1587.7 396 1596.25 396ZM1756.86 272.364V290.545H1684.5V272.364H1756.86ZM1705.59 238.909H1727.05V372C1727.05 378.061 1727.92 382.606 1729.68 385.636C1731.5 388.606 1733.8 390.606 1736.59 391.636C1739.44 392.606 1742.44 393.091 1745.59 393.091C1747.95 393.091 1749.89 392.97 1751.41 392.727C1752.92 392.424 1754.14 392.182 1755.05 392L1759.41 411.273C1757.95 411.818 1755.92 412.364 1753.32 412.909C1750.71 413.515 1747.41 413.818 1743.41 413.818C1737.35 413.818 1731.41 412.515 1725.59 409.909C1719.83 407.303 1715.05 403.333 1711.23 398C1707.47 392.667 1705.59 385.939 1705.59 377.818V238.909ZM1844.36 414.909C1831.76 414.909 1820.7 411.909 1811.18 405.909C1801.73 399.909 1794.33 391.515 1789 380.727C1783.73 369.939 1781.09 357.333 1781.09 342.909C1781.09 328.364 1783.73 315.667 1789 304.818C1794.33 293.97 1801.73 285.545 1811.18 279.545C1820.7 273.545 1831.76 270.545 1844.36 270.545C1856.97 270.545 1868 273.545 1877.45 279.545C1886.97 285.545 1894.36 293.97 1899.64 304.818C1904.97 315.667 1907.64 328.364 1907.64 342.909C1907.64 357.333 1904.97 369.939 1899.64 380.727C1894.36 391.515 1886.97 399.909 1877.45 405.909C1868 411.909 1856.97 414.909 1844.36 414.909ZM1844.36 395.636C1853.94 395.636 1861.82 393.182 1868 388.273C1874.18 383.364 1878.76 376.909 1881.73 368.909C1884.7 360.909 1886.18 352.242 1886.18 342.909C1886.18 333.576 1884.7 324.879 1881.73 316.818C1878.76 308.758 1874.18 302.242 1868 297.273C1861.82 292.303 1853.94 289.818 1844.36 289.818C1834.79 289.818 1826.91 292.303 1820.73 297.273C1814.55 302.242 1809.97 308.758 1807 316.818C1804.03 324.879 1802.55 333.576 1802.55 342.909C1802.55 352.242 1804.03 360.909 1807 368.909C1809.97 376.909 1814.55 383.364 1820.73 388.273C1826.91 393.182 1834.79 395.636 1844.36 395.636ZM1940.39 412V272.364H1961.11V293.455H1962.57C1965.11 286.545 1969.72 280.939 1976.39 276.636C1983.05 272.333 1990.57 270.182 1998.93 270.182C2000.51 270.182 2002.48 270.212 2004.84 270.273C2007.2 270.333 2008.99 270.424 2010.2 270.545V292.364C2009.48 292.182 2007.81 291.909 2005.2 291.545C2002.66 291.121 1999.96 290.909 1997.11 290.909C1990.33 290.909 1984.27 292.333 1978.93 295.182C1973.66 297.97 1969.48 301.848 1966.39 306.818C1963.36 311.727 1961.84 317.333 1961.84 323.636V412H1940.39ZM2088.11 414.909C2075.51 414.909 2064.45 411.909 2054.93 405.909C2045.48 399.909 2038.08 391.515 2032.75 380.727C2027.48 369.939 2024.84 357.333 2024.84 342.909C2024.84 328.364 2027.48 315.667 2032.75 304.818C2038.08 293.97 2045.48 285.545 2054.93 279.545C2064.45 273.545 2075.51 270.545 2088.11 270.545C2100.72 270.545 2111.75 273.545 2121.2 279.545C2130.72 285.545 2138.11 293.97 2143.39 304.818C2148.72 315.667 2151.39 328.364 2151.39 342.909C2151.39 357.333 2148.72 369.939 2143.39 380.727C2138.11 391.515 2130.72 399.909 2121.2 405.909C2111.75 411.909 2100.72 414.909 2088.11 414.909ZM2088.11 395.636C2097.69 395.636 2105.57 393.182 2111.75 388.273C2117.93 383.364 2122.51 376.909 2125.48 368.909C2128.45 360.909 2129.93 352.242 2129.93 342.909C2129.93 333.576 2128.45 324.879 2125.48 316.818C2122.51 308.758 2117.93 302.242 2111.75 297.273C2105.57 292.303 2097.69 289.818 2088.11 289.818C2078.54 289.818 2070.66 292.303 2064.48 297.273C2058.3 302.242 2053.72 308.758 2050.75 316.818C2047.78 324.879 2046.3 333.576 2046.3 342.909C2046.3 352.242 2047.78 360.909 2050.75 368.909C2053.72 376.909 2058.3 383.364 2064.48 388.273C2070.66 393.182 2078.54 395.636 2088.11 395.636ZM2205.59 328V412H2184.14V272.364H2204.86V294.182H2206.68C2209.95 287.091 2214.92 281.394 2221.59 277.091C2228.26 272.727 2236.86 270.545 2247.41 270.545C2256.86 270.545 2265.14 272.485 2272.23 276.364C2279.32 280.182 2284.83 286 2288.77 293.818C2292.71 301.576 2294.68 311.394 2294.68 323.273V412H2273.23V324.727C2273.23 313.758 2270.38 305.212 2264.68 299.091C2258.98 292.909 2251.17 289.818 2241.23 289.818C2234.38 289.818 2228.26 291.303 2222.86 294.273C2217.53 297.242 2213.32 301.576 2210.23 307.273C2207.14 312.97 2205.59 319.879 2205.59 328Z" fill="white"/>
<path d="M864.636 558H856.182C855.682 555.568 854.807 553.432 853.557 551.591C852.33 549.75 850.83 548.205 849.057 546.955C847.307 545.682 845.364 544.727 843.227 544.091C841.091 543.455 838.864 543.136 836.545 543.136C832.318 543.136 828.489 544.205 825.057 546.341C821.648 548.477 818.932 551.625 816.909 555.784C814.909 559.943 813.909 565.045 813.909 571.091C813.909 577.136 814.909 582.239 816.909 586.398C818.932 590.557 821.648 593.705 825.057 595.841C828.489 597.977 832.318 599.045 836.545 599.045C838.864 599.045 841.091 598.727 843.227 598.091C845.364 597.455 847.307 596.511 849.057 595.261C850.83 593.989 852.33 592.432 853.557 590.591C854.807 588.727 855.682 586.591 856.182 584.182H864.636C864 587.75 862.841 590.943 861.159 593.761C859.477 596.58 857.386 598.977 854.886 600.955C852.386 602.909 849.58 604.398 846.466 605.42C843.375 606.443 840.068 606.955 836.545 606.955C830.591 606.955 825.295 605.5 820.659 602.591C816.023 599.682 812.375 595.545 809.716 590.182C807.057 584.818 805.727 578.455 805.727 571.091C805.727 563.727 807.057 557.364 809.716 552C812.375 546.636 816.023 542.5 820.659 539.591C825.295 536.682 830.591 535.227 836.545 535.227C840.068 535.227 843.375 535.739 846.466 536.761C849.58 537.784 852.386 539.284 854.886 541.261C857.386 543.216 859.477 545.602 861.159 548.42C862.841 551.216 864 554.409 864.636 558ZM877.207 606V553.636H884.98V561.545H885.526C886.48 558.955 888.207 556.852 890.707 555.239C893.207 553.625 896.026 552.818 899.162 552.818C899.753 552.818 900.491 552.83 901.378 552.852C902.264 552.875 902.935 552.909 903.389 552.955V561.136C903.116 561.068 902.491 560.966 901.514 560.83C900.56 560.67 899.548 560.591 898.48 560.591C895.935 560.591 893.662 561.125 891.662 562.193C889.685 563.239 888.116 564.693 886.957 566.557C885.821 568.398 885.253 570.5 885.253 572.864V606H877.207ZM933.287 607.091C928.241 607.091 923.889 605.977 920.23 603.75C916.594 601.5 913.787 598.364 911.81 594.341C909.855 590.295 908.878 585.591 908.878 580.227C908.878 574.864 909.855 570.136 911.81 566.045C913.787 561.932 916.537 558.727 920.06 556.432C923.605 554.114 927.741 552.955 932.469 552.955C935.196 552.955 937.889 553.409 940.548 554.318C943.207 555.227 945.628 556.705 947.81 558.75C949.991 560.773 951.73 563.455 953.026 566.795C954.321 570.136 954.969 574.25 954.969 579.136V582.545H914.605V575.591H946.787C946.787 572.636 946.196 570 945.014 567.682C943.855 565.364 942.196 563.534 940.037 562.193C937.901 560.852 935.378 560.182 932.469 560.182C929.264 560.182 926.491 560.977 924.151 562.568C921.832 564.136 920.048 566.182 918.798 568.705C917.548 571.227 916.923 573.932 916.923 576.818V581.455C916.923 585.409 917.605 588.761 918.969 591.511C920.355 594.239 922.276 596.318 924.73 597.75C927.185 599.159 930.037 599.864 933.287 599.864C935.401 599.864 937.31 599.568 939.014 598.977C940.741 598.364 942.23 597.455 943.48 596.25C944.73 595.023 945.696 593.5 946.378 591.682L954.151 593.864C953.332 596.5 951.957 598.818 950.026 600.818C948.094 602.795 945.707 604.341 942.866 605.455C940.026 606.545 936.832 607.091 933.287 607.091ZM982.616 607.227C979.298 607.227 976.287 606.602 973.582 605.352C970.878 604.08 968.73 602.25 967.139 599.864C965.548 597.455 964.753 594.545 964.753 591.136C964.753 588.136 965.344 585.705 966.526 583.841C967.707 581.955 969.287 580.477 971.264 579.409C973.241 578.341 975.423 577.545 977.81 577.023C980.219 576.477 982.639 576.045 985.071 575.727C988.253 575.318 990.832 575.011 992.81 574.807C994.81 574.58 996.264 574.205 997.173 573.682C998.105 573.159 998.571 572.25 998.571 570.955V570.682C998.571 567.318 997.651 564.705 995.81 562.841C993.991 560.977 991.23 560.045 987.526 560.045C983.685 560.045 980.673 560.886 978.491 562.568C976.31 564.25 974.776 566.045 973.889 567.955L966.253 565.227C967.616 562.045 969.435 559.568 971.707 557.795C974.003 556 976.503 554.75 979.207 554.045C981.935 553.318 984.616 552.955 987.253 552.955C988.935 552.955 990.866 553.159 993.048 553.568C995.253 553.955 997.378 554.761 999.423 555.989C1001.49 557.216 1003.21 559.068 1004.57 561.545C1005.93 564.023 1006.62 567.341 1006.62 571.5V606H998.571V598.909H998.162C997.616 600.045 996.707 601.261 995.435 602.557C994.162 603.852 992.469 604.955 990.355 605.864C988.241 606.773 985.662 607.227 982.616 607.227ZM983.844 600C987.026 600 989.707 599.375 991.889 598.125C994.094 596.875 995.753 595.261 996.866 593.284C998.003 591.307 998.571 589.227 998.571 587.045V579.682C998.23 580.091 997.48 580.466 996.321 580.807C995.185 581.125 993.866 581.409 992.366 581.659C990.889 581.886 989.446 582.091 988.037 582.273C986.651 582.432 985.526 582.568 984.662 582.682C982.571 582.955 980.616 583.398 978.798 584.011C977.003 584.602 975.548 585.5 974.435 586.705C973.344 587.886 972.798 589.5 972.798 591.545C972.798 594.341 973.832 596.455 975.901 597.886C977.991 599.295 980.639 600 983.844 600ZM1044.07 553.636V560.455H1016.94V553.636H1044.07ZM1024.85 541.091H1032.89V591C1032.89 593.273 1033.22 594.977 1033.88 596.114C1034.56 597.227 1035.43 597.977 1036.47 598.364C1037.54 598.727 1038.66 598.909 1039.85 598.909C1040.73 598.909 1041.46 598.864 1042.03 598.773C1042.6 598.659 1043.05 598.568 1043.39 598.5L1045.03 605.727C1044.48 605.932 1043.72 606.136 1042.74 606.341C1041.77 606.568 1040.53 606.682 1039.03 606.682C1036.76 606.682 1034.53 606.193 1032.35 605.216C1030.19 604.239 1028.39 602.75 1026.96 600.75C1025.55 598.75 1024.85 596.227 1024.85 593.182V541.091ZM1077.57 607.091C1072.52 607.091 1068.17 605.977 1064.51 603.75C1060.88 601.5 1058.07 598.364 1056.09 594.341C1054.14 590.295 1053.16 585.591 1053.16 580.227C1053.16 574.864 1054.14 570.136 1056.09 566.045C1058.07 561.932 1060.82 558.727 1064.34 556.432C1067.89 554.114 1072.02 552.955 1076.75 552.955C1079.48 552.955 1082.17 553.409 1084.83 554.318C1087.49 555.227 1089.91 556.705 1092.09 558.75C1094.27 560.773 1096.01 563.455 1097.31 566.795C1098.6 570.136 1099.25 574.25 1099.25 579.136V582.545H1058.89V575.591H1091.07C1091.07 572.636 1090.48 570 1089.3 567.682C1088.14 565.364 1086.48 563.534 1084.32 562.193C1082.18 560.852 1079.66 560.182 1076.75 560.182C1073.55 560.182 1070.77 560.977 1068.43 562.568C1066.11 564.136 1064.33 566.182 1063.08 568.705C1061.83 571.227 1061.2 573.932 1061.2 576.818V581.455C1061.2 585.409 1061.89 588.761 1063.25 591.511C1064.64 594.239 1066.56 596.318 1069.01 597.75C1071.47 599.159 1074.32 599.864 1077.57 599.864C1079.68 599.864 1081.59 599.568 1083.3 598.977C1085.02 598.364 1086.51 597.455 1087.76 596.25C1089.01 595.023 1089.98 593.5 1090.66 591.682L1098.43 593.864C1097.61 596.5 1096.24 598.818 1094.31 600.818C1092.38 602.795 1089.99 604.341 1087.15 605.455C1084.31 606.545 1081.11 607.091 1077.57 607.091ZM1143.67 625.636C1142.31 625.636 1141.09 625.523 1140.02 625.295C1138.95 625.091 1138.22 624.886 1137.81 624.682L1139.85 617.591C1141.81 618.091 1143.53 618.273 1145.03 618.136C1146.53 618 1147.86 617.33 1149.02 616.125C1150.2 614.943 1151.28 613.023 1152.26 610.364L1153.76 606.273L1134.4 553.636H1143.12L1157.58 595.364H1158.12L1172.58 553.636H1181.31L1159.08 613.636C1158.08 616.341 1156.84 618.58 1155.36 620.352C1153.89 622.148 1152.17 623.477 1150.22 624.341C1148.28 625.205 1146.1 625.636 1143.67 625.636ZM1211.32 607.091C1206.6 607.091 1202.45 605.966 1198.88 603.716C1195.34 601.466 1192.56 598.318 1190.56 594.273C1188.59 590.227 1187.6 585.5 1187.6 580.091C1187.6 574.636 1188.59 569.875 1190.56 565.807C1192.56 561.739 1195.34 558.58 1198.88 556.33C1202.45 554.08 1206.6 552.955 1211.32 552.955C1216.05 552.955 1220.19 554.08 1223.73 556.33C1227.3 558.58 1230.07 561.739 1232.05 565.807C1234.05 569.875 1235.05 574.636 1235.05 580.091C1235.05 585.5 1234.05 590.227 1232.05 594.273C1230.07 598.318 1227.3 601.466 1223.73 603.716C1220.19 605.966 1216.05 607.091 1211.32 607.091ZM1211.32 599.864C1214.91 599.864 1217.87 598.943 1220.19 597.102C1222.51 595.261 1224.22 592.841 1225.34 589.841C1226.45 586.841 1227.01 583.591 1227.01 580.091C1227.01 576.591 1226.45 573.33 1225.34 570.307C1224.22 567.284 1222.51 564.841 1220.19 562.977C1217.87 561.114 1214.91 560.182 1211.32 560.182C1207.73 560.182 1204.78 561.114 1202.46 562.977C1200.14 564.841 1198.43 567.284 1197.31 570.307C1196.2 573.33 1195.64 576.591 1195.64 580.091C1195.64 583.591 1196.2 586.841 1197.31 589.841C1198.43 592.841 1200.14 595.261 1202.46 597.102C1204.78 598.943 1207.73 599.864 1211.32 599.864ZM1280.33 584.591V553.636H1288.38V606H1280.33V597.136H1279.79C1278.56 599.795 1276.65 602.057 1274.06 603.92C1271.47 605.761 1268.2 606.682 1264.24 606.682C1260.97 606.682 1258.06 605.966 1255.51 604.534C1252.97 603.08 1250.97 600.898 1249.51 597.989C1248.06 595.057 1247.33 591.364 1247.33 586.909V553.636H1255.38V586.364C1255.38 590.182 1256.45 593.227 1258.58 595.5C1260.74 597.773 1263.49 598.909 1266.83 598.909C1268.83 598.909 1270.87 598.398 1272.93 597.375C1275.03 596.352 1276.78 594.784 1278.18 592.67C1279.62 590.557 1280.33 587.864 1280.33 584.591ZM1303.11 606V553.636H1310.89V561.545H1311.43C1312.39 558.955 1314.11 556.852 1316.61 555.239C1319.11 553.625 1321.93 552.818 1325.07 552.818C1325.66 552.818 1326.4 552.83 1327.28 552.852C1328.17 552.875 1328.84 552.909 1329.3 552.955V561.136C1329.02 561.068 1328.4 560.966 1327.42 560.83C1326.47 560.67 1325.45 560.591 1324.39 560.591C1321.84 560.591 1319.57 561.125 1317.57 562.193C1315.59 563.239 1314.02 564.693 1312.86 566.557C1311.73 568.398 1311.16 570.5 1311.16 572.864V606H1303.11ZM1365.83 625.636V553.636H1373.61V561.955H1374.56C1375.15 561.045 1375.97 559.886 1377.01 558.477C1378.08 557.045 1379.61 555.773 1381.58 554.659C1383.58 553.523 1386.29 552.955 1389.7 552.955C1394.11 552.955 1397.99 554.057 1401.36 556.261C1404.72 558.466 1407.34 561.591 1409.23 565.636C1411.12 569.682 1412.06 574.455 1412.06 579.955C1412.06 585.5 1411.12 590.307 1409.23 594.375C1407.34 598.42 1404.73 601.557 1401.39 603.784C1398.05 605.989 1394.2 607.091 1389.83 607.091C1386.47 607.091 1383.78 606.534 1381.75 605.42C1379.73 604.284 1378.17 603 1377.08 601.568C1375.99 600.114 1375.15 598.909 1374.56 597.955H1373.88V625.636H1365.83ZM1373.74 579.818C1373.74 583.773 1374.32 587.261 1375.48 590.284C1376.64 593.284 1378.33 595.636 1380.56 597.341C1382.79 599.023 1385.51 599.864 1388.74 599.864C1392.11 599.864 1394.91 598.977 1397.16 597.205C1399.43 595.409 1401.14 593 1402.28 589.977C1403.43 586.932 1404.01 583.545 1404.01 579.818C1404.01 576.136 1403.45 572.818 1402.31 569.864C1401.2 566.886 1399.5 564.534 1397.23 562.807C1394.98 561.057 1392.15 560.182 1388.74 560.182C1385.47 560.182 1382.72 561.011 1380.49 562.67C1378.26 564.307 1376.58 566.602 1375.45 569.557C1374.31 572.489 1373.74 575.909 1373.74 579.818ZM1424.33 606V553.636H1432.11V561.545H1432.65C1433.61 558.955 1435.33 556.852 1437.83 555.239C1440.33 553.625 1443.15 552.818 1446.29 552.818C1446.88 552.818 1447.62 552.83 1448.5 552.852C1449.39 552.875 1450.06 552.909 1450.51 552.955V561.136C1450.24 561.068 1449.62 560.966 1448.64 560.83C1447.68 560.67 1446.67 560.591 1445.61 560.591C1443.06 560.591 1440.79 561.125 1438.79 562.193C1436.81 563.239 1435.24 564.693 1434.08 566.557C1432.95 568.398 1432.38 570.5 1432.38 572.864V606H1424.33ZM1479.73 607.091C1475 607.091 1470.86 605.966 1467.29 603.716C1463.74 601.466 1460.97 598.318 1458.97 594.273C1456.99 590.227 1456 585.5 1456 580.091C1456 574.636 1456.99 569.875 1458.97 565.807C1460.97 561.739 1463.74 558.58 1467.29 556.33C1470.86 554.08 1475 552.955 1479.73 552.955C1484.46 552.955 1488.59 554.08 1492.14 556.33C1495.71 558.58 1498.48 561.739 1500.46 565.807C1502.46 569.875 1503.46 574.636 1503.46 580.091C1503.46 585.5 1502.46 590.227 1500.46 594.273C1498.48 598.318 1495.71 601.466 1492.14 603.716C1488.59 605.966 1484.46 607.091 1479.73 607.091ZM1479.73 599.864C1483.32 599.864 1486.28 598.943 1488.59 597.102C1490.91 595.261 1492.63 592.841 1493.74 589.841C1494.86 586.841 1495.41 583.591 1495.41 580.091C1495.41 576.591 1494.86 573.33 1493.74 570.307C1492.63 567.284 1490.91 564.841 1488.59 562.977C1486.28 561.114 1483.32 560.182 1479.73 560.182C1476.14 560.182 1473.18 561.114 1470.87 562.977C1468.55 564.841 1466.83 567.284 1465.72 570.307C1464.61 573.33 1464.05 576.591 1464.05 580.091C1464.05 583.591 1464.61 586.841 1465.72 589.841C1466.83 592.841 1468.55 595.261 1470.87 597.102C1473.18 598.943 1476.14 599.864 1479.73 599.864ZM1515.74 553.636H1523.78V609.818C1523.78 613.045 1523.23 615.841 1522.11 618.205C1521.02 620.568 1519.36 622.398 1517.14 623.693C1514.93 624.989 1512.15 625.636 1508.78 625.636C1508.51 625.636 1508.24 625.636 1507.97 625.636C1507.69 625.636 1507.42 625.636 1507.15 625.636V618.136C1507.42 618.136 1507.67 618.136 1507.9 618.136C1508.12 618.136 1508.38 618.136 1508.65 618.136C1511.1 618.136 1512.9 617.409 1514.03 615.955C1515.17 614.523 1515.74 612.477 1515.74 609.818V553.636ZM1519.69 544.909C1518.13 544.909 1516.77 544.375 1515.64 543.307C1514.52 542.239 1513.97 540.955 1513.97 539.455C1513.97 537.955 1514.52 536.67 1515.64 535.602C1516.77 534.534 1518.13 534 1519.69 534C1521.26 534 1522.6 534.534 1523.72 535.602C1524.85 536.67 1525.42 537.955 1525.42 539.455C1525.42 540.955 1524.85 542.239 1523.72 543.307C1522.6 544.375 1521.26 544.909 1519.69 544.909ZM1560.47 607.091C1555.43 607.091 1551.08 605.977 1547.42 603.75C1543.78 601.5 1540.97 598.364 1539 594.341C1537.04 590.295 1536.07 585.591 1536.07 580.227C1536.07 574.864 1537.04 570.136 1539 566.045C1540.97 561.932 1543.72 558.727 1547.25 556.432C1550.79 554.114 1554.93 552.955 1559.66 552.955C1562.38 552.955 1565.08 553.409 1567.74 554.318C1570.39 555.227 1572.82 556.705 1575 558.75C1577.18 560.773 1578.92 563.455 1580.21 566.795C1581.51 570.136 1582.16 574.25 1582.16 579.136V582.545H1541.79V575.591H1573.97C1573.97 572.636 1573.38 570 1572.2 567.682C1571.04 565.364 1569.38 563.534 1567.22 562.193C1565.09 560.852 1562.57 560.182 1559.66 560.182C1556.45 560.182 1553.68 560.977 1551.34 562.568C1549.02 564.136 1547.24 566.182 1545.99 568.705C1544.74 571.227 1544.11 573.932 1544.11 576.818V581.455C1544.11 585.409 1544.79 588.761 1546.16 591.511C1547.54 594.239 1549.46 596.318 1551.92 597.75C1554.37 599.159 1557.22 599.864 1560.47 599.864C1562.59 599.864 1564.5 599.568 1566.2 598.977C1567.93 598.364 1569.42 597.455 1570.67 596.25C1571.92 595.023 1572.88 593.5 1573.57 591.682L1581.34 593.864C1580.52 596.5 1579.14 598.818 1577.21 600.818C1575.28 602.795 1572.89 604.341 1570.05 605.455C1567.21 606.545 1564.02 607.091 1560.47 607.091ZM1615.67 607.091C1610.76 607.091 1606.53 605.932 1602.99 603.614C1599.44 601.295 1596.71 598.102 1594.8 594.034C1592.89 589.966 1591.94 585.318 1591.94 580.091C1591.94 574.773 1592.92 570.08 1594.87 566.011C1596.85 561.92 1599.6 558.727 1603.12 556.432C1606.67 554.114 1610.8 552.955 1615.53 552.955C1619.21 552.955 1622.53 553.636 1625.49 555C1628.44 556.364 1630.86 558.273 1632.75 560.727C1634.63 563.182 1635.8 566.045 1636.26 569.318H1628.21C1627.6 566.932 1626.24 564.818 1624.12 562.977C1622.03 561.114 1619.21 560.182 1615.67 560.182C1612.53 560.182 1609.78 561 1607.42 562.636C1605.08 564.25 1603.25 566.534 1601.93 569.489C1600.63 572.42 1599.99 575.864 1599.99 579.818C1599.99 583.864 1600.62 587.386 1601.89 590.386C1603.19 593.386 1605.01 595.716 1607.35 597.375C1609.71 599.034 1612.49 599.864 1615.67 599.864C1617.76 599.864 1619.66 599.5 1621.36 598.773C1623.07 598.045 1624.51 597 1625.69 595.636C1626.87 594.273 1627.71 592.636 1628.21 590.727H1636.26C1635.8 593.818 1634.68 596.602 1632.88 599.08C1631.11 601.534 1628.76 603.489 1625.83 604.943C1622.92 606.375 1619.53 607.091 1615.67 607.091ZM1670.79 553.636V560.455H1643.66V553.636H1670.79ZM1651.57 541.091H1659.61V591C1659.61 593.273 1659.94 594.977 1660.6 596.114C1661.28 597.227 1662.14 597.977 1663.19 598.364C1664.26 598.727 1665.38 598.909 1666.57 598.909C1667.45 598.909 1668.18 598.864 1668.75 598.773C1669.32 598.659 1669.77 598.568 1670.11 598.5L1671.75 605.727C1671.2 605.932 1670.44 606.136 1669.46 606.341C1668.49 606.568 1667.25 606.682 1665.75 606.682C1663.47 606.682 1661.25 606.193 1659.07 605.216C1656.91 604.239 1655.11 602.75 1653.68 600.75C1652.27 598.75 1651.57 596.227 1651.57 593.182V541.091ZM1719.05 565.364L1711.82 567.409C1711.37 566.205 1710.7 565.034 1709.81 563.898C1708.95 562.739 1707.76 561.784 1706.26 561.034C1704.76 560.284 1702.84 559.909 1700.5 559.909C1697.3 559.909 1694.63 560.648 1692.49 562.125C1690.38 563.58 1689.32 565.432 1689.32 567.682C1689.32 569.682 1690.05 571.261 1691.5 572.42C1692.96 573.58 1695.23 574.545 1698.32 575.318L1706.09 577.227C1710.78 578.364 1714.26 580.102 1716.56 582.443C1718.86 584.761 1720 587.75 1720 591.409C1720 594.409 1719.14 597.091 1717.41 599.455C1715.71 601.818 1713.32 603.682 1710.25 605.045C1707.18 606.409 1703.62 607.091 1699.55 607.091C1694.21 607.091 1689.79 605.932 1686.29 603.614C1682.79 601.295 1680.57 597.909 1679.64 593.455L1687.28 591.545C1688 594.364 1689.38 596.477 1691.4 597.886C1693.45 599.295 1696.12 600 1699.41 600C1703.16 600 1706.14 599.205 1708.34 597.614C1710.57 596 1711.68 594.068 1711.68 591.818C1711.68 590 1711.05 588.477 1709.78 587.25C1708.5 586 1706.55 585.068 1703.91 584.455L1695.18 582.409C1690.39 581.273 1686.87 579.511 1684.62 577.125C1682.39 574.716 1681.28 571.705 1681.28 568.091C1681.28 565.136 1682.11 562.523 1683.76 560.25C1685.45 557.977 1687.73 556.193 1690.62 554.898C1693.53 553.602 1696.82 552.955 1700.5 552.955C1705.68 552.955 1709.75 554.091 1712.71 556.364C1715.68 558.636 1717.8 561.636 1719.05 565.364ZM1770.98 606L1755.02 553.636H1763.48L1774.8 593.727H1775.34L1786.52 553.636H1795.11L1806.16 593.591H1806.7L1818.02 553.636H1826.48L1810.52 606H1802.61L1791.16 565.773H1790.34L1778.89 606H1770.98ZM1837.11 606V553.636H1845.16V606H1837.11ZM1841.2 544.909C1839.64 544.909 1838.28 544.375 1837.15 543.307C1836.03 542.239 1835.48 540.955 1835.48 539.455C1835.48 537.955 1836.03 536.67 1837.15 535.602C1838.28 534.534 1839.64 534 1841.2 534C1842.77 534 1844.11 534.534 1845.23 535.602C1846.36 536.67 1846.93 537.955 1846.93 539.455C1846.93 540.955 1846.36 542.239 1845.23 543.307C1844.11 544.375 1842.77 544.909 1841.2 544.909ZM1882.67 553.636V560.455H1855.53V553.636H1882.67ZM1863.44 541.091H1871.49V591C1871.49 593.273 1871.82 594.977 1872.47 596.114C1873.16 597.227 1874.02 597.977 1875.07 598.364C1876.13 598.727 1877.26 598.909 1878.44 598.909C1879.33 598.909 1880.05 598.864 1880.62 598.773C1881.19 598.659 1881.64 598.568 1881.99 598.5L1883.62 605.727C1883.08 605.932 1882.32 606.136 1881.34 606.341C1880.36 606.568 1879.12 606.682 1877.62 606.682C1875.35 606.682 1873.12 606.193 1870.94 605.216C1868.78 604.239 1866.99 602.75 1865.55 600.75C1864.14 598.75 1863.44 596.227 1863.44 593.182V541.091ZM1903.94 574.5V606H1895.89V536.182H1903.94V561.818H1904.62C1905.85 559.114 1907.69 556.966 1910.14 555.375C1912.62 553.761 1915.92 552.955 1920.03 552.955C1923.6 552.955 1926.72 553.67 1929.41 555.102C1932.09 556.511 1934.17 558.682 1935.64 561.614C1937.14 564.523 1937.89 568.227 1937.89 572.727V606H1929.85V573.273C1929.85 569.114 1928.77 565.898 1926.61 563.625C1924.47 561.33 1921.51 560.182 1917.71 560.182C1915.08 560.182 1912.71 560.739 1910.62 561.852C1908.55 562.966 1906.92 564.591 1905.71 566.727C1904.53 568.864 1903.94 571.455 1903.94 574.5ZM2002.39 553.636V560.455H1975.25V553.636H2002.39ZM1983.16 541.091H1991.2V591C1991.2 593.273 1991.53 594.977 1992.19 596.114C1992.88 597.227 1993.74 597.977 1994.78 598.364C1995.85 598.727 1996.98 598.909 1998.16 598.909C1999.05 598.909 1999.77 598.864 2000.34 598.773C2000.91 598.659 2001.36 598.568 2001.7 598.5L2003.34 605.727C2002.8 605.932 2002.03 606.136 2001.06 606.341C2000.08 606.568 1998.84 606.682 1997.34 606.682C1995.07 606.682 1992.84 606.193 1990.66 605.216C1988.5 604.239 1986.7 602.75 1985.27 600.75C1983.86 598.75 1983.16 596.227 1983.16 593.182V541.091ZM2023.66 574.5V606H2015.61V536.182H2023.66V561.818H2024.34C2025.57 559.114 2027.41 556.966 2029.86 555.375C2032.34 553.761 2035.64 552.955 2039.75 552.955C2043.32 552.955 2046.44 553.67 2049.12 555.102C2051.81 556.511 2053.89 558.682 2055.36 561.614C2056.86 564.523 2057.61 568.227 2057.61 572.727V606H2049.57V573.273C2049.57 569.114 2048.49 565.898 2046.33 563.625C2044.19 561.33 2041.23 560.182 2037.43 560.182C2034.8 560.182 2032.43 560.739 2030.34 561.852C2028.27 562.966 2026.64 564.591 2025.43 566.727C2024.25 568.864 2023.66 571.455 2023.66 574.5ZM2094.29 607.091C2089.24 607.091 2084.89 605.977 2081.23 603.75C2077.59 601.5 2074.79 598.364 2072.81 594.341C2070.86 590.295 2069.88 585.591 2069.88 580.227C2069.88 574.864 2070.86 570.136 2072.81 566.045C2074.79 561.932 2077.54 558.727 2081.06 556.432C2084.61 554.114 2088.74 552.955 2093.47 552.955C2096.2 552.955 2098.89 553.409 2101.55 554.318C2104.21 555.227 2106.63 556.705 2108.81 558.75C2110.99 560.773 2112.73 563.455 2114.03 566.795C2115.32 570.136 2115.97 574.25 2115.97 579.136V582.545H2075.61V575.591H2107.79C2107.79 572.636 2107.2 570 2106.01 567.682C2104.86 565.364 2103.2 563.534 2101.04 562.193C2098.9 560.852 2096.38 560.182 2093.47 560.182C2090.26 560.182 2087.49 560.977 2085.15 562.568C2082.83 564.136 2081.05 566.182 2079.8 568.705C2078.55 571.227 2077.92 573.932 2077.92 576.818V581.455C2077.92 585.409 2078.61 588.761 2079.97 591.511C2081.36 594.239 2083.28 596.318 2085.73 597.75C2088.18 599.159 2091.04 599.864 2094.29 599.864C2096.4 599.864 2098.31 599.568 2100.01 598.977C2101.74 598.364 2103.23 597.455 2104.48 596.25C2105.73 595.023 2106.7 593.5 2107.38 591.682L2115.15 593.864C2114.33 596.5 2112.96 598.818 2111.03 600.818C2109.09 602.795 2106.71 604.341 2103.87 605.455C2101.03 606.545 2097.83 607.091 2094.29 607.091ZM2177.16 607.091C2172.12 607.091 2167.76 605.977 2164.11 603.75C2160.47 601.5 2157.66 598.364 2155.68 594.341C2153.73 590.295 2152.75 585.591 2152.75 580.227C2152.75 574.864 2153.73 570.136 2155.68 566.045C2157.66 561.932 2160.41 558.727 2163.93 556.432C2167.48 554.114 2171.62 552.955 2176.34 552.955C2179.07 552.955 2181.76 553.409 2184.42 554.318C2187.08 555.227 2189.5 556.705 2191.68 558.75C2193.87 560.773 2195.61 563.455 2196.9 566.795C2198.2 570.136 2198.84 574.25 2198.84 579.136V582.545H2158.48V575.591H2190.66C2190.66 572.636 2190.07 570 2188.89 567.682C2187.73 565.364 2186.07 563.534 2183.91 562.193C2181.78 560.852 2179.25 560.182 2176.34 560.182C2173.14 560.182 2170.37 560.977 2168.03 562.568C2165.71 564.136 2163.92 566.182 2162.67 568.705C2161.42 571.227 2160.8 573.932 2160.8 576.818V581.455C2160.8 585.409 2161.48 588.761 2162.84 591.511C2164.23 594.239 2166.15 596.318 2168.61 597.75C2171.06 599.159 2173.91 599.864 2177.16 599.864C2179.28 599.864 2181.18 599.568 2182.89 598.977C2184.62 598.364 2186.11 597.455 2187.36 596.25C2188.61 595.023 2189.57 593.5 2190.25 591.682L2198.03 593.864C2197.21 596.5 2195.83 598.818 2193.9 600.818C2191.97 602.795 2189.58 604.341 2186.74 605.455C2183.9 606.545 2180.71 607.091 2177.16 607.091ZM2226.49 607.227C2223.17 607.227 2220.16 606.602 2217.46 605.352C2214.75 604.08 2212.61 602.25 2211.01 599.864C2209.42 597.455 2208.63 594.545 2208.63 591.136C2208.63 588.136 2209.22 585.705 2210.4 583.841C2211.58 581.955 2213.16 580.477 2215.14 579.409C2217.12 578.341 2219.3 577.545 2221.68 577.023C2224.09 576.477 2226.51 576.045 2228.95 575.727C2232.13 575.318 2234.71 575.011 2236.68 574.807C2238.68 574.58 2240.14 574.205 2241.05 573.682C2241.98 573.159 2242.45 572.25 2242.45 570.955V570.682C2242.45 567.318 2241.53 564.705 2239.68 562.841C2237.87 560.977 2235.11 560.045 2231.4 560.045C2227.56 560.045 2224.55 560.886 2222.37 562.568C2220.18 564.25 2218.65 566.045 2217.76 567.955L2210.13 565.227C2211.49 562.045 2213.31 559.568 2215.58 557.795C2217.88 556 2220.38 554.75 2223.08 554.045C2225.81 553.318 2228.49 552.955 2231.13 552.955C2232.81 552.955 2234.74 553.159 2236.92 553.568C2239.13 553.955 2241.25 554.761 2243.3 555.989C2245.37 557.216 2247.08 559.068 2248.45 561.545C2249.81 564.023 2250.49 567.341 2250.49 571.5V606H2242.45V598.909H2242.04C2241.49 600.045 2240.58 601.261 2239.31 602.557C2238.04 603.852 2236.34 604.955 2234.23 605.864C2232.12 606.773 2229.54 607.227 2226.49 607.227ZM2227.72 600C2230.9 600 2233.58 599.375 2235.76 598.125C2237.97 596.875 2239.63 595.261 2240.74 593.284C2241.88 591.307 2242.45 589.227 2242.45 587.045V579.682C2242.11 580.091 2241.36 580.466 2240.2 580.807C2239.06 581.125 2237.74 581.409 2236.24 581.659C2234.76 581.886 2233.32 582.091 2231.91 582.273C2230.53 582.432 2229.4 582.568 2228.54 582.682C2226.45 582.955 2224.49 583.398 2222.67 584.011C2220.88 584.602 2219.42 585.5 2218.31 586.705C2217.22 587.886 2216.67 589.5 2216.67 591.545C2216.67 594.341 2217.71 596.455 2219.78 597.886C2221.87 599.295 2224.51 600 2227.72 600ZM2302.27 565.364L2295.04 567.409C2294.59 566.205 2293.91 565.034 2293.03 563.898C2292.16 562.739 2290.98 561.784 2289.48 561.034C2287.98 560.284 2286.06 559.909 2283.72 559.909C2280.52 559.909 2277.85 560.648 2275.71 562.125C2273.6 563.58 2272.54 565.432 2272.54 567.682C2272.54 569.682 2273.27 571.261 2274.72 572.42C2276.18 573.58 2278.45 574.545 2281.54 575.318L2289.31 577.227C2293.99 578.364 2297.48 580.102 2299.78 582.443C2302.07 584.761 2303.22 587.75 2303.22 591.409C2303.22 594.409 2302.36 597.091 2300.63 599.455C2298.93 601.818 2296.54 603.682 2293.47 605.045C2290.4 606.409 2286.84 607.091 2282.77 607.091C2277.43 607.091 2273.01 605.932 2269.51 603.614C2266.01 601.295 2263.79 597.909 2262.86 593.455L2270.49 591.545C2271.22 594.364 2272.6 596.477 2274.62 597.886C2276.66 599.295 2279.34 600 2282.63 600C2286.38 600 2289.36 599.205 2291.56 597.614C2293.79 596 2294.9 594.068 2294.9 591.818C2294.9 590 2294.27 588.477 2292.99 587.25C2291.72 586 2289.77 585.068 2287.13 584.455L2278.4 582.409C2273.61 581.273 2270.09 579.511 2267.84 577.125C2265.61 574.716 2264.49 571.705 2264.49 568.091C2264.49 565.136 2265.32 562.523 2266.98 560.25C2268.66 557.977 2270.95 556.193 2273.84 554.898C2276.74 553.602 2280.04 552.955 2283.72 552.955C2288.9 552.955 2292.97 554.091 2295.93 556.364C2298.9 558.636 2301.02 561.636 2302.27 565.364ZM2337.29 607.091C2332.24 607.091 2327.89 605.977 2324.23 603.75C2320.59 601.5 2317.79 598.364 2315.81 594.341C2313.86 590.295 2312.88 585.591 2312.88 580.227C2312.88 574.864 2313.86 570.136 2315.81 566.045C2317.79 561.932 2320.54 558.727 2324.06 556.432C2327.61 554.114 2331.74 552.955 2336.47 552.955C2339.2 552.955 2341.89 553.409 2344.55 554.318C2347.21 555.227 2349.63 556.705 2351.81 558.75C2353.99 560.773 2355.73 563.455 2357.03 566.795C2358.32 570.136 2358.97 574.25 2358.97 579.136V582.545H2318.61V575.591H2350.79C2350.79 572.636 2350.2 570 2349.01 567.682C2347.86 565.364 2346.2 563.534 2344.04 562.193C2341.9 560.852 2339.38 560.182 2336.47 560.182C2333.26 560.182 2330.49 560.977 2328.15 562.568C2325.83 564.136 2324.05 566.182 2322.8 568.705C2321.55 571.227 2320.92 573.932 2320.92 576.818V581.455C2320.92 585.409 2321.61 588.761 2322.97 591.511C2324.36 594.239 2326.28 596.318 2328.73 597.75C2331.18 599.159 2334.04 599.864 2337.29 599.864C2339.4 599.864 2341.31 599.568 2343.01 598.977C2344.74 598.364 2346.23 597.455 2347.48 596.25C2348.73 595.023 2349.7 593.5 2350.38 591.682L2358.15 593.864C2357.33 596.5 2355.96 598.818 2354.03 600.818C2352.09 602.795 2349.71 604.341 2346.87 605.455C2344.03 606.545 2340.83 607.091 2337.29 607.091ZM2381.84 536.182L2381.16 586.364H2373.25L2372.57 536.182H2381.84ZM2377.21 606.545C2375.53 606.545 2374.08 605.943 2372.88 604.739C2371.67 603.534 2371.07 602.091 2371.07 600.409C2371.07 598.727 2371.67 597.284 2372.88 596.08C2374.08 594.875 2375.53 594.273 2377.21 594.273C2378.89 594.273 2380.33 594.875 2381.54 596.08C2382.74 597.284 2383.34 598.727 2383.34 600.409C2383.34 601.523 2383.06 602.545 2382.49 603.477C2381.95 604.409 2381.21 605.159 2380.28 605.727C2379.37 606.273 2378.34 606.545 2377.21 606.545Z" fill="#AAAAAA"/>
</g>
<defs>
<clipPath id="clip0_38_2">
<rect width="2589" height="797" fill="white"/>
</clipPath>
</defs>
</svg>
